<svg width="103" height="29" viewBox="0 0 103 29" fill="none" xmlns="http://www.w3.org/2000/svg">
<g clip-path="url(#clip0)">
<path fill-rule="evenodd" clip-rule="evenodd" d="M78.3663 8.69288C77.76 8.71585 76.3362 9.10981 76.0798 13.0479C75.8233 16.9854 76.8727 18.0046 77.76 18.1204C78.6459 18.2362 80.2093 16.8237 80.3021 12.6305C80.396 8.43823 78.3663 8.69288 78.3663 8.69288ZM59.1391 20.8023C55.6325 23.817 55.3294 25.9706 55.3294 25.9706C55.3294 25.9706 54.983 27.7365 56.6717 27.8225C58.7008 28.0273 59.0413 25.5757 59.0959 23.4294C59.1224 22.4162 59.1391 20.8023 59.1391 20.8023ZM57.0613 8.57069C56.4457 8.59415 54.8966 9.13082 54.5472 12.9428C54.2868 16.9321 55.352 17.9649 56.2521 18.0823C57.1522 18.1995 58.7392 16.7679 58.833 12.5205C58.9282 8.27254 57.0613 8.57069 57.0613 8.57069ZM44.6511 8.55309C44.0447 8.57606 42.6209 8.97002 42.365 12.9081C42.1084 16.8456 43.158 17.8648 44.0447 17.9806C44.9311 18.0964 46.494 16.6839 46.5869 12.4912C46.6812 8.29795 44.6511 8.55309 44.6511 8.55309ZM102.982 15.2503C102.982 19.7231 100.258 19.6517 100.258 19.6517C97.6664 19.7431 97.0036 17.0182 96.8399 14.2483C96.7171 12.1651 96.8399 9.84685 96.8399 9.84685C96.8399 9.84685 96.8217 9.73984 96.7505 9.84685C95.8838 11.4125 95.2947 13.7879 95.0058 15.6262C94.7961 16.96 94.7744 18.0769 94.7744 18.0769C94.7744 18.0769 94.8102 18.3276 94.5961 18.4708C93.1899 19.1146 92.282 18.2019 91.9616 17.1824C91.5346 16.2166 91.2851 10.4016 91.2851 10.0976C91.2851 9.79311 91.0355 10.0263 91.0355 10.0263C89.0953 13.2644 89.0776 18.0236 89.0776 18.9894C89.0776 19.9557 87.4218 19.6517 87.4218 19.6517C86.0152 19.5442 86.0687 18.8643 86.0687 18.8643L86.0049 17.7093C85.5165 18.6062 84.6075 19.7709 83.2107 19.681C81.0961 19.5451 80.6858 17.3666 80.6549 16.9991C80.6549 16.9991 79.6025 19.7118 76.7057 19.681C74.7384 19.6507 73.9488 17.6272 73.9488 17.6272C73.9488 17.6272 73.1589 19.7421 71.2235 19.6659C69.2872 19.5891 67.692 17.3666 67.8158 14.4859C67.9396 11.6045 68.3886 10.1636 68.3886 10.1636C68.3886 10.1636 68.5439 9.87228 68.2805 9.8571C68.0177 9.84202 66.3447 9.88794 66.3447 9.88794C66.3447 9.88794 65.3999 13.6583 61.4045 18.3476C61.4045 18.3476 61.4365 19.8135 61.435 21.444C61.433 24.5267 61.0478 28.6622 56.851 29C53.2196 28.7556 53.4245 25.9706 53.4245 25.9706C53.3381 25.1524 53.8574 23.645 56.0222 21.6205C58.1869 19.5965 59.0526 18.8213 59.0526 18.8213L58.9666 17.529C57.5806 19.8115 55.4596 19.6825 55.4596 19.6825C55.4596 19.6825 53.8215 20.0139 52.4439 17.5891C52.0385 18.4195 51.1183 19.8365 49.6129 19.6718C47.4973 19.4401 47.0772 17.3398 47.0462 16.9694C47.0462 16.9694 45.9889 19.7025 43.0803 19.6718C41.1048 19.6404 40.3118 17.6027 40.3118 17.6027C40.0827 17.1897 39.9064 16.5632 39.8141 16.1941C39.7905 16.2694 39.7634 16.3515 39.7261 16.4473C39.278 17.5876 38.1686 19.576 36.4667 19.6014C33.3399 19.6014 33.2078 14.7762 33.2078 14.7762C32.3037 16.9165 30.533 19.658 27.2363 19.6395C23.9395 19.6199 23.5441 18.4376 23.5441 18.2685C23.5441 18.0994 23.4875 17.9117 23.8643 17.3671C24.2412 16.8227 24.5615 16.5974 24.8248 16.5974C25.0888 16.5974 25.5599 16.9918 25.5599 16.9918C25.5599 16.9918 26.2758 17.6858 27.0854 17.6858C28.1216 17.6487 28.3476 16.8227 28.4233 15.9775C28.4984 15.133 27.8956 14.2317 27.0667 13.4805C26.2379 12.7296 25.5972 12.1666 25.5972 12.1666C24.4107 14.1569 23.5062 15.5083 22.8473 16.6726C21.2456 19.2636 19.6567 19.6644 19.0421 19.5827C18.1941 19.4704 17.3839 18.6062 17.3466 16.0905C17.3087 13.5748 17.5347 9.27501 17.5347 9.04969C17.5347 8.82436 17.3278 8.93727 17.3278 8.93727C14.1628 12.279 13.2209 19.1507 13.2209 19.2822C13.2209 19.4141 12.9385 19.5637 12.6559 19.5637C12.3734 19.5637 12.7502 19.5451 11.6197 19.5075C10.4897 19.4704 10.5649 17.33 10.5649 17.33L10.64 7.09654C10.6587 6.7588 10.9795 6.60875 12.053 6.89028C13.1271 7.17182 13.0893 7.52862 13.0893 7.52862L13.0515 13.4619C15.8205 5.33207 17.9115 6.60875 19.1737 7.22803C20.436 7.84779 20.2664 8.74909 20.2664 8.74909C20.2664 8.74909 20.1348 13.2179 20.0778 14.7952C20.0217 16.3725 20.2473 16.9918 20.6054 17.0485C21.4908 17.2547 24.6367 11.2086 24.6367 11.2086C23.2428 9.70659 24.0039 7.87321 25.0888 7.07797C25.8257 6.53738 26.7277 6.47727 26.7277 6.47727C26.7277 6.47727 28.1403 6.40199 28.103 7.58483C28.1403 8.88057 26.6899 10.4579 26.6899 10.4579C29.4969 12.4482 30.8156 13.4995 31.0228 15.0386C31.1157 15.7772 30.9472 16.2406 30.9472 16.2406C32.9445 14.5132 33.0948 12.5796 33.0948 12.5796L33.1326 6.12046L30.1753 6.08331C30.1753 6.08331 29.9493 6.06425 29.9115 5.51975C29.9115 4.48698 30.4579 4.0549 30.4579 4.0549L33.2834 4.09254C33.2834 4.09254 33.3777 1.18237 33.3964 0.71266C33.4903 0.0371729 33.9236 -0.0571607 35.1671 0.262009C36.4102 0.581179 36.4102 0.862713 36.4102 0.862713L36.2593 4.26166C36.2593 4.26166 39.368 4.4117 39.7826 4.44934C40.1967 4.48698 40.3285 4.59939 40.2346 5.29394C40.1403 5.98898 39.7261 6.1581 39.7261 6.1581L36.222 6.23288L35.9773 13.7248C35.9773 14.8886 36.0334 17.6302 37.1261 17.611C38.6521 17.6858 39.5566 14.2879 39.5566 14.2879L39.5733 14.261C39.5561 13.7312 39.5669 13.0957 39.643 12.3826C39.9319 9.65235 41.1558 6.45283 43.9661 6.45283C43.9661 6.45283 45.6774 6.39124 46.5795 8.08973L46.6104 7.47193C46.6104 7.47193 46.548 6.73094 47.7307 6.91619C48.9128 7.10143 49.3166 7.56479 49.2857 7.93528C49.2857 7.93528 49.068 12.6916 49.1928 15.5025C49.351 17.135 49.6331 18.1003 50.4678 18.0343C51.1876 17.9302 51.6985 16.9512 52.0081 16.1173C50.963 7.46899 55.7205 6.42057 55.7205 6.42057C55.7205 6.42057 57.8262 6.26709 58.7863 8.01446L58.8173 7.43184C58.8173 7.43184 58.7244 6.66593 59.8402 6.8805C59.8402 6.8805 60.3045 6.9416 60.8002 7.12539C61.2955 7.30916 61.4502 7.43184 61.4502 7.89178C61.4502 8.35123 61.3574 16.4322 61.3574 16.4322C61.3574 16.4322 63.8356 13.1216 64.4552 9.90311C64.4552 9.90311 63.5879 9.25937 63.6503 8.33998C63.7118 7.42011 64.1761 6.31694 65.5395 6.31694C66.9024 6.31694 66.9643 7.51201 66.7476 8.33998C66.7476 8.33998 67.8934 8.18652 68.8844 7.94115C69.8759 7.69627 71.2078 7.54279 71.3007 9.07559C71.3626 9.62742 71.1145 10.0565 71.1145 10.0565C71.1145 10.0565 70.3402 13.4589 70.464 14.8382C70.5882 16.2176 70.9602 18.3017 72.044 18.0564C73.1279 17.8114 73.4998 16.2792 73.4998 16.2792C73.4998 16.2792 73.064 14.5054 73.2827 12.4472C73.5711 9.73743 74.7896 6.56231 77.5881 6.56231C77.5881 6.56231 79.2919 6.50073 80.1906 8.18652L80.2211 7.57359C80.2211 7.57359 80.1592 6.83799 81.3369 7.02176C82.5131 7.20603 82.9165 7.66547 82.885 8.03304C82.885 8.03304 82.6683 12.7536 82.7927 15.5435C82.9499 17.1638 83.2304 18.1218 84.0622 18.0564C84.864 18.0329 85.54 16.6849 85.9582 15.5856L85.9528 15.1789L85.9798 7.20799C86.0466 6.75195 86.4608 6.72507 86.4608 6.72507L87.4218 6.87268C88.7705 7.07406 88.5833 7.58386 88.5833 7.58386V12.0923C89.5846 9.03306 90.0656 7.86539 90.5196 7.08726C90.9062 6.42399 92.1749 6.859 92.1749 6.859C92.1749 6.859 93.5505 7.22167 93.577 8.48271C93.5373 10.563 93.8311 13.9511 93.8311 13.9511C93.836 14.0049 93.8827 14.0215 93.9087 13.998C93.9293 13.9794 93.9313 13.9243 93.9313 13.9243C94.2045 11.7438 95.451 8.16501 95.9497 7.23487C96.4478 6.30473 97.8898 6.96653 97.8898 6.96653C99.6165 7.55697 99.3853 8.57656 99.3853 8.57656C98.8693 17.3257 99.9547 17.8979 100.596 17.9518C101.236 18.0055 101.575 17.1824 101.717 16.7885C101.86 16.3954 102.038 15.5367 102.145 15.1965C102.251 14.8568 102.59 14.8387 102.59 14.8387C102.59 14.8387 102.982 14.9281 102.982 15.2503ZM2.71603 1.96099C4.66313 0.0606333 5.86932 0.00393548 5.86932 0.00393548C5.86932 0.00393548 6.24911 -0.0532512 7.17033 0.268362C8.09155 0.589976 8.12938 1.08168 8.12938 1.08168V14.9898C8.24779 18.8829 7.27498 20.3795 6.10663 21.4196C5.44285 21.9563 4.90928 22.0247 4.84344 22.0247C4.68229 22.0247 4.55896 22.0057 4.52998 21.7887C4.50197 21.5711 4.70096 21.0036 4.70096 21.0036C5.29005 19.5187 5.24239 16.9473 5.24239 16.9473L5.29939 1.96099C5.29939 1.96099 5.34704 1.68678 5.10973 1.77183C2.81135 3.73866 2.52639 6.50904 2.45023 7.8517C2.4124 9.86541 3.29088 10.9055 3.29088 10.9055C3.29088 10.9055 3.51885 11.104 3.49035 11.3875C3.49035 11.7707 3.13414 11.7424 3.13414 11.7424C2.26992 11.6622 0.89275 10.688 0.398974 9.51549C-0.0102939 8.64938 2.37718e-05 7.71436 2.37718e-05 7.71436C0.0285202 6.5369 0.769429 3.86134 2.71603 1.96099Z" fill="#1D1D1B"/>
</g>
<defs>
<clipPath id="clip0">
<rect width="103" height="29" fill="white"/>
</clipPath>
</defs>
</svg>
