<svg width="10" height="10" viewBox="0 0 10 10" fill="none" xmlns="http://www.w3.org/2000/svg">
<path fill-rule="evenodd" clip-rule="evenodd" d="M4.43182 0C1.98419 0 0 1.89792 0 4.23913C0 6.58035 1.98419 8.47826 4.43182 8.47826C5.41668 8.47826 6.32655 8.17096 7.06227 7.65113L7.14532 7.73057L9.19077 9.68709L9.43182 9.9177L9.91395 9.45652L9.67286 9.22596L7.62741 7.26943L7.57936 7.22343C8.37327 6.45735 8.86364 5.40304 8.86364 4.23913C8.86364 1.89792 6.87945 0 4.43182 0ZM0.681818 4.23913C0.681818 2.25811 2.36075 0.652174 4.43182 0.652174C6.50286 0.652174 8.18182 2.25811 8.18182 4.23913C8.18182 6.22013 6.50286 7.82609 4.43182 7.82609C2.36075 7.82609 0.681818 6.22013 0.681818 4.23913Z" fill="#A5A7AA"/>
</svg>
